<svg xmlns="http://www.w3.org/2000/svg" width="18.439" height="21.663" viewBox="0 0 18.439 21.663">
  <g id="search" transform="translate(-1166 -107)">
    <g id="パス_15" data-name="パス 15" transform="translate(1166 107)" fill="none">
      <path d="M8.432,0A8.432,8.432,0,1,1,0,8.432,8.432,8.432,0,0,1,8.432,0Z" stroke="none"/>
      <path d="M 8.431577682495117 1.999998092651367 C 4.885188102722168 1.999998092651367 1.999998092651367 4.885188102722168 1.999998092651367 8.431577682495117 C 1.999998092651367 11.97796821594238 4.885188102722168 14.86315727233887 8.431577682495117 14.86315727233887 C 11.97796821594238 14.86315727233887 14.86315727233887 11.97796821594238 14.86315727233887 8.431577682495117 C 14.86315727233887 4.885188102722168 11.97796821594238 1.999998092651367 8.431577682495117 1.999998092651367 M 8.431577682495117 -1.9073486328125e-06 C 13.08820724487305 -1.9073486328125e-06 16.86315727233887 3.774948120117188 16.86315727233887 8.431577682495117 C 16.86315727233887 13.08820724487305 13.08820724487305 16.86315727233887 8.431577682495117 16.86315727233887 C 3.774948120117188 16.86315727233887 -1.9073486328125e-06 13.08820724487305 -1.9073486328125e-06 8.431577682495117 C -1.9073486328125e-06 3.774948120117188 3.774948120117188 -1.9073486328125e-06 8.431577682495117 -1.9073486328125e-06 Z" stroke="none" fill="#fff"/>
    </g>
    <path id="パス_11" data-name="パス 11" d="M0,0,4.327,3.888" transform="translate(1178.542 122.447) rotate(10)" fill="none" stroke="#fff" stroke-linecap="round" stroke-width="2"/>
  </g>
</svg>
